# xmcd
#
# Track frame offsets:
# 150
# 18450
# 39587
# 56198
# 78279
# 107862
# 141087
# 168500
# 190403
# 204876
# 226581
# 244578
#
# Disc length: 3495 seconds
#
# Revision: 1
# Processed by: cddbd v1.4PL0 Copyright (c) Steve Scherf et al.
# Submitted via: Easy CD Ripper v2.14
#
DISCID=990da50c
DTITLE=Oscar d´León - Cuando Ruge el León
DYEAR=2001
DGENRE=Salsa
TTITLE0=Ruge El Leon - Oscar d´León
TTITLE1=Detalles - Oscar d´León
TTITLE2=Llorarás - Oscar d´León
TTITLE3=Con la Esperanza - Oscar d´León
TTITLE4=Q´ bueno baila Ud/Que bailen TO - Oscar d´León
TTITLE5=Mi Bajo y Yo - Oscar d´León
TTITLE6=Taboga - Oscar d´León
TTITLE7=La Carta - Oscar d´León
TTITLE8=Anabacoa - Oscar d´León
TTITLE9=El Rey del Timbal - Oscar d´León
TTITLE10=Mujer de Arena - Oscar d´León
TTITLE11=Parampampam - Oscar d´León
EXTD=
EXTT0=con la Pelota Gaitera
EXTT1=
EXTT2=
EXTT3=
EXTT4=Medley
EXTT5=
EXTT6=
EXTT7=
EXTT8=
EXTT9=
EXTT10=
EXTT11=
PLAYORDER=
